<?xml version="1.0" encoding="UTF-8" standalone="no"?>
<!DOCTYPE svg PUBLIC "-//W3C//DTD SVG 1.1//EN" "http://www.w3.org/Graphics/SVG/1.1/DTD/svg11.dtd">
<svg xmlns="http://www.w3.org/2000/svg" version="1.1" viewBox="0.00 0.00 650.00 137.00">
<g stroke-width="2.00" fill="none" stroke-linecap="butt">
<path stroke="#c8c8c8" vector-effect="non-scaling-stroke" d="
  M 134.46 25.39
  C 136.98 25.46 136.59 26.56 136.57 28.25
  Q 136.40 47.58 136.54 66.93
  Q 136.54 67.44 136.93 67.76
  L 138.67 69.14"
/>
<path stroke="#7e7e7e" vector-effect="non-scaling-stroke" d="
  M 138.67 69.14
  Q 140.64 72.63 144.08 75.48
  Q 144.57 75.89 144.57 75.25
  L 144.67 35.01"
/>
<path stroke="#888a90" vector-effect="non-scaling-stroke" d="
  M 144.67 35.01
  Q 145.57 33.80 145.43 33.45
  Q 144.59 31.29 146.77 31.91
  L 164.79 36.97
  Q 165.93 37.29 165.94 38.48
  L 165.98 113.21"
/>
<path stroke="#7e7e7e" vector-effect="non-scaling-stroke" d="
  M 165.98 113.21
  Q 165.06 113.77 164.24 113.44
  A 0.82 0.82 0.0 0 1 163.73 112.68
  L 163.42 42.74
  Q 163.42 42.30 163.00 42.20
  L 160.97 41.68
  Q 160.50 41.56 160.50 42.05
  L 160.50 112.76
  Q 160.50 113.34 159.93 113.38
  L 158.04 113.54
  Q 157.50 113.59 157.50 113.04
  L 157.50 41.49
  Q 157.50 40.70 156.75 40.47
  L 154.57 39.82
  A 0.44 0.43 -81.6 0 0 154.01 40.24
  Q 153.98 63.34 154.02 86.44
  Q 154.02 87.05 154.90 87.86
  Q 155.21 88.15 154.86 88.39
  C 154.31 88.76 154.01 89.12 154.01 89.87
  Q 154.00 101.35 154.00 112.89
  Q 154.00 113.64 153.27 113.49
  L 151.79 113.20
  Q 151.25 113.09 151.25 112.53
  L 151.25 89.05
  Q 151.25 88.63 150.97 88.31
  Q 141.35 77.45 131.64 66.67
  C 130.80 65.74 130.12 65.96 129.50 66.98
  A 0.66 0.66 0.0 0 0 129.57 67.77
  L 147.91 88.20
  A 1.29 1.28 23.9 0 1 148.25 89.07
  L 148.25 113.00
  Q 148.25 113.50 147.75 113.50
  L 66.75 113.50
  A 0.50 0.50 0.0 0 1 66.25 113.00
  L 66.25 81.05
  A 0.22 0.21 78.4 0 0 65.95 80.85
  L 44.21 90.14
  Q 43.50 90.44 43.50 91.22
  L 43.50 112.64
  Q 43.50 113.22 42.92 113.23
  L 37.06 113.36
  Q 36.50 113.37 36.50 112.81
  L 36.50 94.03
  Q 36.50 93.44 35.96 93.68
  L 22.25 99.68
  Q 21.75 99.90 21.75 100.45
  L 21.75 112.75
  A 0.76 0.76 0.0 0 1 20.99 113.51
  L 17.29 113.49
  Q 16.75 113.48 16.75 114.02
  L 16.75 116.50
  Q 16.75 117.00 17.25 117.00
  L 171.52 117.00
  Q 172.04 117.00 172.03 116.48
  L 171.94 113.84
  A 0.46 0.45 90.0 0 0 171.50 113.39
  L 166.64 113.25"
/>
<path stroke="#888a90" vector-effect="non-scaling-stroke" d="
  M 166.64 113.25
  L 166.83 37.35
  A 1.10 1.10 0.0 0 0 166.00 36.28
  Q 155.69 33.73 145.25 31.00
  Q 143.98 30.67 143.23 31.97"
/>
<path stroke="#7e7e7e" vector-effect="non-scaling-stroke" d="
  M 143.23 31.97
  L 138.31 35.17"
/>
<path stroke="#c8c8c8" vector-effect="non-scaling-stroke" d="
  M 138.31 35.17
  Q 137.18 30.83 137.56 26.20
  A 0.74 0.73 -80.3 0 0 137.03 25.44
  L 134.74 24.80"
/>
<path stroke="#7e7e7e" vector-effect="non-scaling-stroke" d="
  M 134.74 24.80
  L 112.95 19.32
  A 1.34 1.32 -54.9 0 0 111.89 19.51
  L 95.66 30.42
  Q 95.25 30.69 95.25 31.19
  L 95.25 46.36
  Q 95.25 46.90 95.61 47.30
  L 111.97 65.23
  Q 112.50 65.81 112.50 65.03
  L 112.50 20.51
  Q 112.50 19.66 113.33 19.87
  L 134.46 25.39"
/>
<path stroke="#4a4a4a" vector-effect="non-scaling-stroke" d="
  M 134.74 24.80
  Q 134.86 25.05 134.46 25.39"
/>
<path stroke="#4a4a4a" vector-effect="non-scaling-stroke" d="
  M 138.31 35.17
  L 138.67 69.14"
/>
<path stroke="#0a0c12" vector-effect="non-scaling-stroke" d="
  M 166.64 113.25
  L 165.98 113.21"
/>
<path stroke="#0a0c12" vector-effect="non-scaling-stroke" d="
  M 144.67 35.01
  C 144.15 33.67 145.78 31.65 143.23 31.97"
/>
<path stroke="#da8696" vector-effect="non-scaling-stroke" d="
  M 559.47 108.44
  C 556.86 112.57 550.29 112.72 552.25 105.97
  Q 564.62 63.44 577.30 20.66
  A 0.38 0.38 0.0 0 0 576.76 20.22
  Q 567.36 24.97 556.79 24.99
  Q 556.26 24.99 556.12 25.51
  L 555.75 26.95
  A 0.46 0.45 -81.8 0 0 556.17 27.52
  C 561.71 27.79 564.89 29.21 563.01 35.40
  Q 552.70 69.27 542.65 103.22
  C 540.59 110.18 543.25 116.91 551.72 115.61
  C 561.60 114.09 564.82 104.32 567.04 95.58
  Q 567.17 95.06 566.64 95.06
  L 565.70 95.06
  Q 565.00 95.06 564.81 95.74
  Q 562.75 103.25 559.47 108.44"
/>
<path stroke="#7e7e7e" vector-effect="non-scaling-stroke" d="
  M 126.75 63.28
  L 126.75 30.92
  A 0.77 0.77 0.0 0 0 126.19 30.18
  L 123.83 29.49
  A 0.45 0.45 0.0 0 0 123.25 29.92
  L 123.25 66.27
  Q 123.25 66.75 122.84 67.00
  L 120.58 68.38
  Q 119.99 68.74 119.99 68.04
  L 120.01 29.23
  Q 120.01 28.67 119.47 28.51
  L 117.03 27.79
  Q 116.48 27.62 116.49 28.19
  C 116.54 41.55 115.70 55.45 116.58 68.73
  C 116.69 70.32 117.60 71.24 118.67 72.29
  Q 119.11 72.71 119.54 72.29
  Q 125.07 66.98 130.78 61.86
  Q 131.35 61.35 131.83 61.95
  L 133.05 63.50
  A 0.37 0.37 0.0 0 0 133.71 63.27
  L 133.75 32.33
  A 0.76 0.76 0.0 0 0 133.07 31.57
  L 130.78 31.32
  Q 130.25 31.26 130.25 31.80
  Q 130.25 46.36 130.25 60.92
  Q 130.25 61.50 129.79 61.85
  L 127.43 63.62
  Q 126.75 64.14 126.75 63.28"
/>
<path stroke="#888a90" vector-effect="non-scaling-stroke" d="
  M 261.18 70.30
  Q 264.89 55.10 269.32 40.03
  C 270.87 34.77 274.41 32.47 279.81 32.92
  Q 280.48 32.97 280.62 32.31
  L 280.93 30.81
  Q 281.03 30.29 280.51 30.33
  Q 265.96 31.22 251.42 30.35
  Q 250.92 30.32 250.83 30.82
  L 250.57 32.30
  Q 250.48 32.77 250.96 32.79
  Q 253.82 32.92 256.53 33.77
  A 1.40 1.40 0.0 0 1 257.31 34.36
  Q 258.99 36.97 258.12 40.28
  Q 249.63 72.51 240.93 104.68
  C 239.44 110.21 236.13 111.23 230.93 111.89
  C 229.83 112.03 229.12 112.72 229.43 113.82
  Q 229.58 114.34 230.11 114.31
  Q 243.49 113.67 256.88 114.27
  C 258.28 114.34 259.37 114.55 259.56 112.82
  Q 259.64 112.12 258.94 112.03
  C 254.81 111.50 250.50 110.93 251.90 105.20
  Q 255.73 89.50 260.30 73.79
  Q 260.45 73.25 261.02 73.25
  L 297.73 73.25
  Q 298.25 73.25 298.13 73.75
  Q 294.17 89.67 289.57 105.39
  Q 288.00 110.76 282.51 111.45
  C 281.19 111.61 277.72 111.61 278.29 113.84
  A 0.64 0.63 -8.5 0 0 278.93 114.31
  Q 292.61 113.64 306.50 114.38
  Q 308.46 114.49 308.67 112.75
  Q 308.73 112.24 308.23 112.13
  C 302.41 110.84 299.46 111.48 301.44 103.80
  Q 308.79 75.28 316.43 46.84
  C 318.71 38.36 319.39 32.46 329.04 32.86
  A 0.64 0.64 0.0 0 0 329.69 32.35
  L 330.01 30.88
  Q 330.13 30.33 329.56 30.36
  Q 315.07 31.18 300.57 30.34
  Q 300.01 30.31 299.91 30.87
  L 299.68 32.15
  Q 299.57 32.74 300.17 32.80
  C 304.52 33.22 308.64 33.39 307.22 39.37
  Q 303.56 54.79 298.99 70.19
  Q 298.82 70.75 298.24 70.75
  L 261.53 70.75
  Q 261.07 70.75 261.18 70.30"
/>
<path stroke="#7e7e7e" vector-effect="non-scaling-stroke" d="
  M 149.67 38.63
  L 148.60 38.24
  A 0.45 0.45 0.0 0 0 148.00 38.66
  L 148.00 79.73
  Q 148.00 80.35 148.44 80.79
  L 150.98 83.32
  Q 151.19 83.53 151.19 83.23
  L 151.22 39.36
  Q 151.22 38.75 150.61 38.75
  L 150.32 38.75
  Q 149.98 38.75 149.67 38.63"
/>
<path stroke="#7e7e7e" vector-effect="non-scaling-stroke" d="
  M 60.95 79.10
  C 71.60 68.60 81.35 59.31 92.93 47.49
  Q 93.83 46.58 92.74 47.25
  Q 66.12 63.79 39.59 80.48
  C 31.67 85.46 25.36 92.25 18.87 98.81
  Q 18.28 99.41 19.04 99.07
  Q 37.68 90.86 56.21 82.37
  Q 58.87 81.15 60.95 79.10"
/>
<path stroke="#7e7e7e" vector-effect="non-scaling-stroke" d="
  M 117.49 81.60
  A 0.49 0.49 0.0 0 0 117.98 81.75
  L 120.08 81.16
  A 0.49 0.49 0.0 0 0 120.31 80.36
  L 95.02 51.65
  A 0.49 0.49 0.0 0 0 94.34 51.59
  L 92.57 53.06
  A 0.49 0.49 0.0 0 0 92.52 53.76
  L 117.49 81.60"
/>
<path stroke="#a98892" vector-effect="non-scaling-stroke" d="
  M 419.42 87.31
  Q 417.73 94.82 415.86 102.28
  C 414.44 107.93 413.33 116.02 421.75 115.72
  C 432.42 115.32 436.01 104.96 438.46 95.53
  Q 438.59 95.02 438.07 95.02
  L 436.99 95.02
  A 0.66 0.65 8.3 0 0 436.36 95.48
  C 435.16 99.45 430.58 114.25 424.13 110.91
  A 1.14 1.13 -82.7 0 1 423.57 110.18
  Q 423.03 107.99 423.66 105.72
  Q 431.12 79.12 438.62 52.45
  Q 438.82 51.74 438.11 51.95
  Q 433.44 53.35 428.52 53.21
  A 0.69 0.68 6.7 0 0 427.84 53.74
  C 424.54 68.58 413.45 104.91 398.35 111.57
  C 392.03 114.36 391.60 107.46 392.88 103.59
  Q 398.81 85.65 404.70 67.69
  C 406.03 63.65 407.35 57.46 404.98 54.39
  C 402.37 51.02 395.74 51.68 392.48 53.11
  C 386.11 55.91 382.66 65.65 381.36 71.96
  Q 381.27 72.39 381.70 72.46
  C 385.34 73.06 385.58 55.63 395.05 56.24
  A 0.97 0.96 -13.3 0 1 395.83 56.72
  Q 397.08 58.87 396.55 60.52
  Q 390.39 79.48 384.17 98.43
  C 382.80 102.59 381.57 108.92 384.21 112.56
  C 387.20 116.70 395.08 116.15 399.02 114.46
  C 408.51 110.39 414.78 96.64 419.11 87.20
  Q 419.76 85.78 419.42 87.31"
/>
<path stroke="#eb8597" vector-effect="non-scaling-stroke" d="
  M 603.72 52.75
  C 585.17 57.75 572.96 85.87 576.59 103.18
  Q 579.28 116.01 592.94 115.67
  C 614.87 115.12 627.23 86.40 626.19 67.77
  C 625.48 54.84 615.41 49.59 603.72 52.75"
/>
<path stroke="#988991" vector-effect="non-scaling-stroke" d="
  M 354.94 52.02
  C 334.44 53.15 323.49 77.10 322.28 94.77
  C 320.66 118.50 343.09 121.60 356.77 108.00
  Q 369.62 95.22 372.11 75.51
  C 373.68 63.18 369.69 51.20 354.94 52.02"
/>
<path stroke="#b98894" vector-effect="non-scaling-stroke" d="
  M 480.50 56.39
  C 472.55 66.61 485.57 72.81 487.67 63.66
  C 490.25 52.38 475.55 50.73 468.24 52.48
  C 455.69 55.48 451.80 69.13 458.60 79.42
  C 462.97 86.02 468.00 91.75 468.74 99.99
  C 469.73 111.11 461.99 115.27 452.18 112.66
  Q 451.69 112.53 451.73 112.03
  C 452.02 108.51 453.65 97.52 446.48 99.00
  C 443.65 99.59 442.56 102.13 442.76 104.88
  C 443.50 115.30 456.30 117.16 464.21 115.03
  C 478.23 111.24 482.66 97.43 475.19 85.31
  Q 471.38 79.13 467.46 73.03
  C 461.02 63.01 466.85 51.40 479.79 54.38
  A 1.26 1.26 0.0 0 1 480.50 56.39"
/>
<path stroke="#ca8795" vector-effect="non-scaling-stroke" d="
  M 504.25 87.67
  C 516.57 83.77 536.91 75.06 538.63 61.31
  C 539.20 56.82 536.96 52.33 532.23 51.96
  C 510.81 50.26 495.50 75.19 491.81 93.06
  C 489.68 103.38 492.56 114.49 504.76 115.81
  C 514.93 116.91 524.84 109.11 530.07 100.43
  Q 530.36 99.95 529.86 99.70
  L 528.92 99.24
  Q 528.44 99.01 528.14 99.45
  Q 523.76 105.89 519.45 108.19
  C 501.30 117.90 500.86 99.88 503.68 88.27
  Q 503.80 87.81 504.25 87.67"
/>
<path stroke="#888a90" vector-effect="non-scaling-stroke" d="
  M 100.05 84.24
  L 99.83 97.95
  Q 99.82 98.59 100.43 98.78
  L 101.30 99.05
  A 0.48 0.48 0.0 0 0 101.92 98.59
  L 101.82 84.24"
/>
<path stroke="#7e7e7e" vector-effect="non-scaling-stroke" d="
  M 101.82 84.24
  L 101.69 77.09
  Q 101.68 76.52 101.10 76.51
  Q 93.14 76.47 85.19 76.52
  A 1.89 1.69 31.0 0 0 84.51 76.65
  Q 83.49 77.05 83.93 77.32
  Q 84.66 77.75 84.75 77.75
  L 99.80 77.75
  Q 100.46 77.75 100.42 78.41
  L 100.05 84.24"
/>
<path stroke="#0a0c12" vector-effect="non-scaling-stroke" d="
  M 101.82 84.24
  L 100.05 84.24"
/>
<path stroke="#7e7e7e" vector-effect="non-scaling-stroke" d="
  M 90.2596 80.5164
  A 0.26 0.26 0.0 0 0 90.0010 80.2550
  L 84.2811 80.2251
  A 0.26 0.26 0.0 0 0 84.0197 80.4837
  L 83.9804 88.0036
  A 0.26 0.26 0.0 0 0 84.2390 88.2650
  L 89.9589 88.2949
  A 0.26 0.26 0.0 0 0 90.2203 88.0363
  L 90.2596 80.5164"
/>
<path stroke="#7e7e7e" vector-effect="non-scaling-stroke" d="
  M 98.9637 80.6646
  A 0.41 0.41 0.0 0 0 98.5530 80.2553
  L 93.1330 80.2647
  A 0.41 0.41 0.0 0 0 92.7237 80.6755
  L 92.7363 87.8754
  A 0.41 0.41 0.0 0 0 93.1470 88.2847
  L 98.5670 88.2753
  A 0.41 0.41 0.0 0 0 98.9763 87.8645
  L 98.9637 80.6646"
/>
<path stroke="#7e7e7e" vector-effect="non-scaling-stroke" d="
  M 135.93 86.53
  C 136.07 91.29 135.67 101.44 136.49 102.15
  A 0.46 0.46 0.0 0 0 137.25 101.81
  L 137.25 85.25
  A 0.50 0.49 0.0 0 0 136.75 84.76
  Q 130.18 84.73 123.62 84.77
  A 0.44 0.34 25.5 0 0 123.44 84.81
  C 122.39 85.33 123.62 85.99 124.12 85.99
  Q 129.76 85.96 135.41 86.02
  Q 135.91 86.02 135.93 86.53"
/>
<path stroke="#7e7e7e" vector-effect="non-scaling-stroke" d="
  M 127.9714 87.9932
  A 0.51 0.51 0.0 0 0 127.4578 87.4868
  L 123.6579 87.5133
  A 0.51 0.51 0.0 0 0 123.1515 88.0269
  L 123.1886 93.3468
  A 0.51 0.51 0.0 0 0 123.7022 93.8532
  L 127.5021 93.8267
  A 0.51 0.51 0.0 0 0 128.0085 93.3131
  L 127.9714 87.9932"
/>
<path stroke="#7e7e7e" vector-effect="non-scaling-stroke" d="
  M 134.7389 88.0674
  A 0.44 0.44 0.0 0 0 134.3019 87.6243
  L 130.2220 87.5958
  A 0.44 0.44 0.0 0 0 129.7790 88.0328
  L 129.7411 93.4526
  A 0.44 0.44 0.0 0 0 130.1781 93.8957
  L 134.2580 93.9242
  A 0.44 0.44 0.0 0 0 134.7010 93.4872
  L 134.7389 88.0674"
/>
<path stroke="#7e7e7e" vector-effect="non-scaling-stroke" d="
  M 90.2754 91.0120
  A 0.46 0.46 0.0 0 0 89.8186 90.5488
  L 84.4588 90.5114
  A 0.46 0.46 0.0 0 0 83.9956 90.9682
  L 83.9446 98.2680
  A 0.46 0.46 0.0 0 0 84.4014 98.7312
  L 89.7612 98.7686
  A 0.46 0.46 0.0 0 0 90.2244 98.3118
  L 90.2754 91.0120"
/>
<path stroke="#7e7e7e" vector-effect="non-scaling-stroke" d="
  M 98.8159 91.0022
  A 0.53 0.53 0.0 0 0 98.2795 90.4787
  L 93.0999 90.5419
  A 0.53 0.53 0.0 0 0 92.5764 91.0784
  L 92.6641 98.2578
  A 0.53 0.53 0.0 0 0 93.2005 98.7813
  L 98.3801 98.7181
  A 0.53 0.53 0.0 0 0 98.9036 98.1816
  L 98.8159 91.0022"
/>
<path stroke="#7e7e7e" vector-effect="non-scaling-stroke" d="
  M 128.0315 96.4206
  A 0.69 0.69 0.0 0 0 127.3499 95.7222
  L 123.7502 95.6783
  A 0.69 0.69 0.0 0 0 123.0518 96.3598
  L 122.9885 101.5394
  A 0.69 0.69 0.0 0 0 123.6701 102.2378
  L 127.2698 102.2817
  A 0.69 0.69 0.0 0 0 127.9682 101.6002
  L 128.0315 96.4206"
/>
<path stroke="#7e7e7e" vector-effect="non-scaling-stroke" d="
  M 134.7735 96.4031
  A 0.64 0.64 0.0 0 0 134.1368 95.7598
  L 130.4169 95.7403
  A 0.64 0.64 0.0 0 0 129.7735 96.3769
  L 129.7465 101.5369
  A 0.64 0.64 0.0 0 0 130.3832 102.1802
  L 134.1031 102.1997
  A 0.64 0.64 0.0 0 0 134.7465 101.5631
  L 134.7735 96.4031"
/>
<path stroke="#eb8597" vector-effect="non-scaling-stroke" d="
  M 608.27 54.36
  C 592.08 57.65 586.51 90.74 586.33 104.00
  C 586.28 107.85 587.30 112.40 591.70 113.21
  C 602.62 115.23 610.79 94.86 612.88 87.03
  C 614.39 81.39 621.54 51.66 608.27 54.36"
/>
<path stroke="#988991" vector-effect="non-scaling-stroke" d="
  M 357.24 54.24
  C 339.51 52.52 332.67 90.49 332.35 102.43
  C 332.12 110.94 336.60 117.03 345.00 111.19
  C 357.24 102.65 362.21 77.74 362.30 63.73
  C 362.31 60.80 361.06 54.61 357.24 54.24"
/>
<path stroke="#ca8795" vector-effect="non-scaling-stroke" d="
  M 516.44 61.69
  Q 507.63 72.85 504.52 84.85
  Q 504.40 85.35 504.89 85.21
  C 518.01 81.59 528.99 74.23 529.42 59.45
  C 529.50 56.94 529.66 55.17 527.72 53.97
  Q 527.20 53.64 526.61 53.85
  Q 520.97 55.94 516.44 61.69"
/>
</g>
<path fill="#fcfcfc" d="
  M 0.00 0.00
  L 650.00 0.00
  L 650.00 137.00
  L 0.00 137.00
  L 0.00 0.00
  Z
  M 134.46 25.39
  C 136.98 25.46 136.59 26.56 136.57 28.25
  Q 136.40 47.58 136.54 66.93
  Q 136.54 67.44 136.93 67.76
  L 138.67 69.14
  Q 140.64 72.63 144.08 75.48
  Q 144.57 75.89 144.57 75.25
  L 144.67 35.01
  Q 145.57 33.80 145.43 33.45
  Q 144.59 31.29 146.77 31.91
  L 164.79 36.97
  Q 165.93 37.29 165.94 38.48
  L 165.98 113.21
  Q 165.06 113.77 164.24 113.44
  A 0.82 0.82 0.0 0 1 163.73 112.68
  L 163.42 42.74
  Q 163.42 42.30 163.00 42.20
  L 160.97 41.68
  Q 160.50 41.56 160.50 42.05
  L 160.50 112.76
  Q 160.50 113.34 159.93 113.38
  L 158.04 113.54
  Q 157.50 113.59 157.50 113.04
  L 157.50 41.49
  Q 157.50 40.70 156.75 40.47
  L 154.57 39.82
  A 0.44 0.43 -81.6 0 0 154.01 40.24
  Q 153.98 63.34 154.02 86.44
  Q 154.02 87.05 154.90 87.86
  Q 155.21 88.15 154.86 88.39
  C 154.31 88.76 154.01 89.12 154.01 89.87
  Q 154.00 101.35 154.00 112.89
  Q 154.00 113.64 153.27 113.49
  L 151.79 113.20
  Q 151.25 113.09 151.25 112.53
  L 151.25 89.05
  Q 151.25 88.63 150.97 88.31
  Q 141.35 77.45 131.64 66.67
  C 130.80 65.74 130.12 65.96 129.50 66.98
  A 0.66 0.66 0.0 0 0 129.57 67.77
  L 147.91 88.20
  A 1.29 1.28 23.9 0 1 148.25 89.07
  L 148.25 113.00
  Q 148.25 113.50 147.75 113.50
  L 66.75 113.50
  A 0.50 0.50 0.0 0 1 66.25 113.00
  L 66.25 81.05
  A 0.22 0.21 78.4 0 0 65.95 80.85
  L 44.21 90.14
  Q 43.50 90.44 43.50 91.22
  L 43.50 112.64
  Q 43.50 113.22 42.92 113.23
  L 37.06 113.36
  Q 36.50 113.37 36.50 112.81
  L 36.50 94.03
  Q 36.50 93.44 35.96 93.68
  L 22.25 99.68
  Q 21.75 99.90 21.75 100.45
  L 21.75 112.75
  A 0.76 0.76 0.0 0 1 20.99 113.51
  L 17.29 113.49
  Q 16.75 113.48 16.75 114.02
  L 16.75 116.50
  Q 16.75 117.00 17.25 117.00
  L 171.52 117.00
  Q 172.04 117.00 172.03 116.48
  L 171.94 113.84
  A 0.46 0.45 90.0 0 0 171.50 113.39
  L 166.64 113.25
  L 166.83 37.35
  A 1.10 1.10 0.0 0 0 166.00 36.28
  Q 155.69 33.73 145.25 31.00
  Q 143.98 30.67 143.23 31.97
  L 138.31 35.17
  Q 137.18 30.83 137.56 26.20
  A 0.74 0.73 -80.3 0 0 137.03 25.44
  L 134.74 24.80
  L 112.95 19.32
  A 1.34 1.32 -54.9 0 0 111.89 19.51
  L 95.66 30.42
  Q 95.25 30.69 95.25 31.19
  L 95.25 46.36
  Q 95.25 46.90 95.61 47.30
  L 111.97 65.23
  Q 112.50 65.81 112.50 65.03
  L 112.50 20.51
  Q 112.50 19.66 113.33 19.87
  L 134.46 25.39
  Z
  M 559.47 108.44
  C 556.86 112.57 550.29 112.72 552.25 105.97
  Q 564.62 63.44 577.30 20.66
  A 0.38 0.38 0.0 0 0 576.76 20.22
  Q 567.36 24.97 556.79 24.99
  Q 556.26 24.99 556.12 25.51
  L 555.75 26.95
  A 0.46 0.45 -81.8 0 0 556.17 27.52
  C 561.71 27.79 564.89 29.21 563.01 35.40
  Q 552.70 69.27 542.65 103.22
  C 540.59 110.18 543.25 116.91 551.72 115.61
  C 561.60 114.09 564.82 104.32 567.04 95.58
  Q 567.17 95.06 566.64 95.06
  L 565.70 95.06
  Q 565.00 95.06 564.81 95.74
  Q 562.75 103.25 559.47 108.44
  Z
  M 126.75 63.28
  L 126.75 30.92
  A 0.77 0.77 0.0 0 0 126.19 30.18
  L 123.83 29.49
  A 0.45 0.45 0.0 0 0 123.25 29.92
  L 123.25 66.27
  Q 123.25 66.75 122.84 67.00
  L 120.58 68.38
  Q 119.99 68.74 119.99 68.04
  L 120.01 29.23
  Q 120.01 28.67 119.47 28.51
  L 117.03 27.79
  Q 116.48 27.62 116.49 28.19
  C 116.54 41.55 115.70 55.45 116.58 68.73
  C 116.69 70.32 117.60 71.24 118.67 72.29
  Q 119.11 72.71 119.54 72.29
  Q 125.07 66.98 130.78 61.86
  Q 131.35 61.35 131.83 61.95
  L 133.05 63.50
  A 0.37 0.37 0.0 0 0 133.71 63.27
  L 133.75 32.33
  A 0.76 0.76 0.0 0 0 133.07 31.57
  L 130.78 31.32
  Q 130.25 31.26 130.25 31.80
  Q 130.25 46.36 130.25 60.92
  Q 130.25 61.50 129.79 61.85
  L 127.43 63.62
  Q 126.75 64.14 126.75 63.28
  Z
  M 261.18 70.30
  Q 264.89 55.10 269.32 40.03
  C 270.87 34.77 274.41 32.47 279.81 32.92
  Q 280.48 32.97 280.62 32.31
  L 280.93 30.81
  Q 281.03 30.29 280.51 30.33
  Q 265.96 31.22 251.42 30.35
  Q 250.92 30.32 250.83 30.82
  L 250.57 32.30
  Q 250.48 32.77 250.96 32.79
  Q 253.82 32.92 256.53 33.77
  A 1.40 1.40 0.0 0 1 257.31 34.36
  Q 258.99 36.97 258.12 40.28
  Q 249.63 72.51 240.93 104.68
  C 239.44 110.21 236.13 111.23 230.93 111.89
  C 229.83 112.03 229.12 112.72 229.43 113.82
  Q 229.58 114.34 230.11 114.31
  Q 243.49 113.67 256.88 114.27
  C 258.28 114.34 259.37 114.55 259.56 112.82
  Q 259.64 112.12 258.94 112.03
  C 254.81 111.50 250.50 110.93 251.90 105.20
  Q 255.73 89.50 260.30 73.79
  Q 260.45 73.25 261.02 73.25
  L 297.73 73.25
  Q 298.25 73.25 298.13 73.75
  Q 294.17 89.67 289.57 105.39
  Q 288.00 110.76 282.51 111.45
  C 281.19 111.61 277.72 111.61 278.29 113.84
  A 0.64 0.63 -8.5 0 0 278.93 114.31
  Q 292.61 113.64 306.50 114.38
  Q 308.46 114.49 308.67 112.75
  Q 308.73 112.24 308.23 112.13
  C 302.41 110.84 299.46 111.48 301.44 103.80
  Q 308.79 75.28 316.43 46.84
  C 318.71 38.36 319.39 32.46 329.04 32.86
  A 0.64 0.64 0.0 0 0 329.69 32.35
  L 330.01 30.88
  Q 330.13 30.33 329.56 30.36
  Q 315.07 31.18 300.57 30.34
  Q 300.01 30.31 299.91 30.87
  L 299.68 32.15
  Q 299.57 32.74 300.17 32.80
  C 304.52 33.22 308.64 33.39 307.22 39.37
  Q 303.56 54.79 298.99 70.19
  Q 298.82 70.75 298.24 70.75
  L 261.53 70.75
  Q 261.07 70.75 261.18 70.30
  Z
  M 149.67 38.63
  L 148.60 38.24
  A 0.45 0.45 0.0 0 0 148.00 38.66
  L 148.00 79.73
  Q 148.00 80.35 148.44 80.79
  L 150.98 83.32
  Q 151.19 83.53 151.19 83.23
  L 151.22 39.36
  Q 151.22 38.75 150.61 38.75
  L 150.32 38.75
  Q 149.98 38.75 149.67 38.63
  Z
  M 60.95 79.10
  C 71.60 68.60 81.35 59.31 92.93 47.49
  Q 93.83 46.58 92.74 47.25
  Q 66.12 63.79 39.59 80.48
  C 31.67 85.46 25.36 92.25 18.87 98.81
  Q 18.28 99.41 19.04 99.07
  Q 37.68 90.86 56.21 82.37
  Q 58.87 81.15 60.95 79.10
  Z
  M 117.49 81.60
  A 0.49 0.49 0.0 0 0 117.98 81.75
  L 120.08 81.16
  A 0.49 0.49 0.0 0 0 120.31 80.36
  L 95.02 51.65
  A 0.49 0.49 0.0 0 0 94.34 51.59
  L 92.57 53.06
  A 0.49 0.49 0.0 0 0 92.52 53.76
  L 117.49 81.60
  Z
  M 419.42 87.31
  Q 417.73 94.82 415.86 102.28
  C 414.44 107.93 413.33 116.02 421.75 115.72
  C 432.42 115.32 436.01 104.96 438.46 95.53
  Q 438.59 95.02 438.07 95.02
  L 436.99 95.02
  A 0.66 0.65 8.3 0 0 436.36 95.48
  C 435.16 99.45 430.58 114.25 424.13 110.91
  A 1.14 1.13 -82.7 0 1 423.57 110.18
  Q 423.03 107.99 423.66 105.72
  Q 431.12 79.12 438.62 52.45
  Q 438.82 51.74 438.11 51.95
  Q 433.44 53.35 428.52 53.21
  A 0.69 0.68 6.7 0 0 427.84 53.74
  C 424.54 68.58 413.45 104.91 398.35 111.57
  C 392.03 114.36 391.60 107.46 392.88 103.59
  Q 398.81 85.65 404.70 67.69
  C 406.03 63.65 407.35 57.46 404.98 54.39
  C 402.37 51.02 395.74 51.68 392.48 53.11
  C 386.11 55.91 382.66 65.65 381.36 71.96
  Q 381.27 72.39 381.70 72.46
  C 385.34 73.06 385.58 55.63 395.05 56.24
  A 0.97 0.96 -13.3 0 1 395.83 56.72
  Q 397.08 58.87 396.55 60.52
  Q 390.39 79.48 384.17 98.43
  C 382.80 102.59 381.57 108.92 384.21 112.56
  C 387.20 116.70 395.08 116.15 399.02 114.46
  C 408.51 110.39 414.78 96.64 419.11 87.20
  Q 419.76 85.78 419.42 87.31
  Z
  M 603.72 52.75
  C 585.17 57.75 572.96 85.87 576.59 103.18
  Q 579.28 116.01 592.94 115.67
  C 614.87 115.12 627.23 86.40 626.19 67.77
  C 625.48 54.84 615.41 49.59 603.72 52.75
  Z
  M 354.94 52.02
  C 334.44 53.15 323.49 77.10 322.28 94.77
  C 320.66 118.50 343.09 121.60 356.77 108.00
  Q 369.62 95.22 372.11 75.51
  C 373.68 63.18 369.69 51.20 354.94 52.02
  Z
  M 480.50 56.39
  C 472.55 66.61 485.57 72.81 487.67 63.66
  C 490.25 52.38 475.55 50.73 468.24 52.48
  C 455.69 55.48 451.80 69.13 458.60 79.42
  C 462.97 86.02 468.00 91.75 468.74 99.99
  C 469.73 111.11 461.99 115.27 452.18 112.66
  Q 451.69 112.53 451.73 112.03
  C 452.02 108.51 453.65 97.52 446.48 99.00
  C 443.65 99.59 442.56 102.13 442.76 104.88
  C 443.50 115.30 456.30 117.16 464.21 115.03
  C 478.23 111.24 482.66 97.43 475.19 85.31
  Q 471.38 79.13 467.46 73.03
  C 461.02 63.01 466.85 51.40 479.79 54.38
  A 1.26 1.26 0.0 0 1 480.50 56.39
  Z
  M 504.25 87.67
  C 516.57 83.77 536.91 75.06 538.63 61.31
  C 539.20 56.82 536.96 52.33 532.23 51.96
  C 510.81 50.26 495.50 75.19 491.81 93.06
  C 489.68 103.38 492.56 114.49 504.76 115.81
  C 514.93 116.91 524.84 109.11 530.07 100.43
  Q 530.36 99.95 529.86 99.70
  L 528.92 99.24
  Q 528.44 99.01 528.14 99.45
  Q 523.76 105.89 519.45 108.19
  C 501.30 117.90 500.86 99.88 503.68 88.27
  Q 503.80 87.81 504.25 87.67
  Z
  M 100.05 84.24
  L 99.83 97.95
  Q 99.82 98.59 100.43 98.78
  L 101.30 99.05
  A 0.48 0.48 0.0 0 0 101.92 98.59
  L 101.82 84.24
  L 101.69 77.09
  Q 101.68 76.52 101.10 76.51
  Q 93.14 76.47 85.19 76.52
  A 1.89 1.69 31.0 0 0 84.51 76.65
  Q 83.49 77.05 83.93 77.32
  Q 84.66 77.75 84.75 77.75
  L 99.80 77.75
  Q 100.46 77.75 100.42 78.41
  L 100.05 84.24
  Z
  M 90.2596 80.5164
  A 0.26 0.26 0.0 0 0 90.0010 80.2550
  L 84.2811 80.2251
  A 0.26 0.26 0.0 0 0 84.0197 80.4837
  L 83.9804 88.0036
  A 0.26 0.26 0.0 0 0 84.2390 88.2650
  L 89.9589 88.2949
  A 0.26 0.26 0.0 0 0 90.2203 88.0363
  L 90.2596 80.5164
  Z
  M 98.9637 80.6646
  A 0.41 0.41 0.0 0 0 98.5530 80.2553
  L 93.1330 80.2647
  A 0.41 0.41 0.0 0 0 92.7237 80.6755
  L 92.7363 87.8754
  A 0.41 0.41 0.0 0 0 93.1470 88.2847
  L 98.5670 88.2753
  A 0.41 0.41 0.0 0 0 98.9763 87.8645
  L 98.9637 80.6646
  Z
  M 135.93 86.53
  C 136.07 91.29 135.67 101.44 136.49 102.15
  A 0.46 0.46 0.0 0 0 137.25 101.81
  L 137.25 85.25
  A 0.50 0.49 0.0 0 0 136.75 84.76
  Q 130.18 84.73 123.62 84.77
  A 0.44 0.34 25.5 0 0 123.44 84.81
  C 122.39 85.33 123.62 85.99 124.12 85.99
  Q 129.76 85.96 135.41 86.02
  Q 135.91 86.02 135.93 86.53
  Z
  M 127.9714 87.9932
  A 0.51 0.51 0.0 0 0 127.4578 87.4868
  L 123.6579 87.5133
  A 0.51 0.51 0.0 0 0 123.1515 88.0269
  L 123.1886 93.3468
  A 0.51 0.51 0.0 0 0 123.7022 93.8532
  L 127.5021 93.8267
  A 0.51 0.51 0.0 0 0 128.0085 93.3131
  L 127.9714 87.9932
  Z
  M 134.7389 88.0674
  A 0.44 0.44 0.0 0 0 134.3019 87.6243
  L 130.2220 87.5958
  A 0.44 0.44 0.0 0 0 129.7790 88.0328
  L 129.7411 93.4526
  A 0.44 0.44 0.0 0 0 130.1781 93.8957
  L 134.2580 93.9242
  A 0.44 0.44 0.0 0 0 134.7010 93.4872
  L 134.7389 88.0674
  Z
  M 90.2754 91.0120
  A 0.46 0.46 0.0 0 0 89.8186 90.5488
  L 84.4588 90.5114
  A 0.46 0.46 0.0 0 0 83.9956 90.9682
  L 83.9446 98.2680
  A 0.46 0.46 0.0 0 0 84.4014 98.7312
  L 89.7612 98.7686
  A 0.46 0.46 0.0 0 0 90.2244 98.3118
  L 90.2754 91.0120
  Z
  M 98.8159 91.0022
  A 0.53 0.53 0.0 0 0 98.2795 90.4787
  L 93.0999 90.5419
  A 0.53 0.53 0.0 0 0 92.5764 91.0784
  L 92.6641 98.2578
  A 0.53 0.53 0.0 0 0 93.2005 98.7813
  L 98.3801 98.7181
  A 0.53 0.53 0.0 0 0 98.9036 98.1816
  L 98.8159 91.0022
  Z
  M 128.0315 96.4206
  A 0.69 0.69 0.0 0 0 127.3499 95.7222
  L 123.7502 95.6783
  A 0.69 0.69 0.0 0 0 123.0518 96.3598
  L 122.9885 101.5394
  A 0.69 0.69 0.0 0 0 123.6701 102.2378
  L 127.2698 102.2817
  A 0.69 0.69 0.0 0 0 127.9682 101.6002
  L 128.0315 96.4206
  Z
  M 134.7735 96.4031
  A 0.64 0.64 0.0 0 0 134.1368 95.7598
  L 130.4169 95.7403
  A 0.64 0.64 0.0 0 0 129.7735 96.3769
  L 129.7465 101.5369
  A 0.64 0.64 0.0 0 0 130.3832 102.1802
  L 134.1031 102.1997
  A 0.64 0.64 0.0 0 0 134.7465 101.5631
  L 134.7735 96.4031
  Z"
/>
<path fill="#000000" d="
  M 134.74 24.80
  Q 134.86 25.05 134.46 25.39
  L 113.33 19.87
  Q 112.50 19.66 112.50 20.51
  L 112.50 65.03
  Q 112.50 65.81 111.97 65.23
  L 95.61 47.30
  Q 95.25 46.90 95.25 46.36
  L 95.25 31.19
  Q 95.25 30.69 95.66 30.42
  L 111.89 19.51
  A 1.34 1.32 -54.9 0 1 112.95 19.32
  L 134.74 24.80
  Z"
/>
<path fill="#b80f30" d="
  M 552.25 105.97
  C 550.29 112.72 556.86 112.57 559.47 108.44
  Q 562.75 103.25 564.81 95.74
  Q 565.00 95.06 565.70 95.06
  L 566.64 95.06
  Q 567.17 95.06 567.04 95.58
  C 564.82 104.32 561.60 114.09 551.72 115.61
  C 543.25 116.91 540.59 110.18 542.65 103.22
  Q 552.70 69.27 563.01 35.40
  C 564.89 29.21 561.71 27.79 556.17 27.52
  A 0.46 0.45 -81.8 0 1 555.75 26.95
  L 556.12 25.51
  Q 556.26 24.99 556.79 24.99
  Q 567.36 24.97 576.76 20.22
  A 0.38 0.38 0.0 0 1 577.30 20.66
  Q 564.62 63.44 552.25 105.97
  Z"
/>
<path fill="#949394" d="
  M 134.74 24.80
  L 137.03 25.44
  A 0.74 0.73 -80.3 0 1 137.56 26.20
  Q 137.18 30.83 138.31 35.17
  L 138.67 69.14
  L 136.93 67.76
  Q 136.54 67.44 136.54 66.93
  Q 136.40 47.58 136.57 28.25
  C 136.59 26.56 136.98 25.46 134.46 25.39
  Q 134.86 25.05 134.74 24.80
  Z"
/>
<path fill="#000000" d="
  M 127.43 63.62
  L 129.79 61.85
  Q 130.25 61.50 130.25 60.92
  Q 130.25 46.36 130.25 31.80
  Q 130.25 31.26 130.78 31.32
  L 133.07 31.57
  A 0.76 0.76 0.0 0 1 133.75 32.33
  L 133.71 63.27
  A 0.37 0.37 0.0 0 1 133.05 63.50
  L 131.83 61.95
  Q 131.35 61.35 130.78 61.86
  Q 125.07 66.98 119.54 72.29
  Q 119.11 72.71 118.67 72.29
  C 117.60 71.24 116.69 70.32 116.58 68.73
  C 115.70 55.45 116.54 41.55 116.49 28.19
  Q 116.48 27.62 117.03 27.79
  L 119.47 28.51
  Q 120.01 28.67 120.01 29.23
  L 119.99 68.04
  Q 119.99 68.74 120.58 68.38
  L 122.84 67.00
  Q 123.25 66.75 123.25 66.27
  L 123.25 29.92
  A 0.45 0.45 0.0 0 1 123.83 29.49
  L 126.19 30.18
  A 0.77 0.77 0.0 0 1 126.75 30.92
  L 126.75 63.28
  Q 126.75 64.14 127.43 63.62
  Z"
/>
<path fill="#131723" d="
  M 261.53 70.75
  L 298.24 70.75
  Q 298.82 70.75 298.99 70.19
  Q 303.56 54.79 307.22 39.37
  C 308.64 33.39 304.52 33.22 300.17 32.80
  Q 299.57 32.74 299.68 32.15
  L 299.91 30.87
  Q 300.01 30.31 300.57 30.34
  Q 315.07 31.18 329.56 30.36
  Q 330.13 30.33 330.01 30.88
  L 329.69 32.35
  A 0.64 0.64 0.0 0 1 329.04 32.86
  C 319.39 32.46 318.71 38.36 316.43 46.84
  Q 308.79 75.28 301.44 103.80
  C 299.46 111.48 302.41 110.84 308.23 112.13
  Q 308.73 112.24 308.67 112.75
  Q 308.46 114.49 306.50 114.38
  Q 292.61 113.64 278.93 114.31
  A 0.64 0.63 -8.5 0 1 278.29 113.84
  C 277.72 111.61 281.19 111.61 282.51 111.45
  Q 288.00 110.76 289.57 105.39
  Q 294.17 89.67 298.13 73.75
  Q 298.25 73.25 297.73 73.25
  L 261.02 73.25
  Q 260.45 73.25 260.30 73.79
  Q 255.73 89.50 251.90 105.20
  C 250.50 110.93 254.81 111.50 258.94 112.03
  Q 259.64 112.12 259.56 112.82
  C 259.37 114.55 258.28 114.34 256.88 114.27
  Q 243.49 113.67 230.11 114.31
  Q 229.58 114.34 229.43 113.82
  C 229.12 112.72 229.83 112.03 230.93 111.89
  C 236.13 111.23 239.44 110.21 240.93 104.68
  Q 249.63 72.51 258.12 40.28
  Q 258.99 36.97 257.31 34.36
  A 1.40 1.40 0.0 0 0 256.53 33.77
  Q 253.82 32.92 250.96 32.79
  Q 250.48 32.77 250.57 32.30
  L 250.83 30.82
  Q 250.92 30.32 251.42 30.35
  Q 265.96 31.22 280.51 30.33
  Q 281.03 30.29 280.93 30.81
  L 280.62 32.31
  Q 280.48 32.97 279.81 32.92
  C 274.41 32.47 270.87 34.77 269.32 40.03
  Q 264.89 55.10 261.18 70.30
  Q 261.07 70.75 261.53 70.75
  Z"
/>
<path fill="#131723" d="
  M 166.64 113.25
  L 165.98 113.21
  L 165.94 38.48
  Q 165.93 37.29 164.79 36.97
  L 146.77 31.91
  Q 144.59 31.29 145.43 33.45
  Q 145.57 33.80 144.67 35.01
  C 144.15 33.67 145.78 31.65 143.23 31.97
  Q 143.98 30.67 145.25 31.00
  Q 155.69 33.73 166.00 36.28
  A 1.10 1.10 0.0 0 1 166.83 37.35
  L 166.64 113.25
  Z"
/>
<path fill="#000000" d="
  M 143.23 31.97
  C 145.78 31.65 144.15 33.67 144.67 35.01
  L 144.57 75.25
  Q 144.57 75.89 144.08 75.48
  Q 140.64 72.63 138.67 69.14
  L 138.31 35.17
  L 143.23 31.97
  Z"
/>
<path fill="#000000" d="
  M 150.32 38.75
  L 150.61 38.75
  Q 151.22 38.75 151.22 39.36
  L 151.19 83.23
  Q 151.19 83.53 150.98 83.32
  L 148.44 80.79
  Q 148.00 80.35 148.00 79.73
  L 148.00 38.66
  A 0.45 0.45 0.0 0 1 148.60 38.24
  L 149.67 38.63
  Q 149.98 38.75 150.32 38.75
  Z"
/>
<path fill="#000000" d="
  M 165.98 113.21
  L 166.64 113.25
  L 171.50 113.39
  A 0.46 0.45 90.0 0 1 171.94 113.84
  L 172.03 116.48
  Q 172.04 117.00 171.52 117.00
  L 17.25 117.00
  Q 16.75 117.00 16.75 116.50
  L 16.75 114.02
  Q 16.75 113.48 17.29 113.49
  L 20.99 113.51
  A 0.76 0.76 0.0 0 0 21.75 112.75
  L 21.75 100.45
  Q 21.75 99.90 22.25 99.68
  L 35.96 93.68
  Q 36.50 93.44 36.50 94.03
  L 36.50 112.81
  Q 36.50 113.37 37.06 113.36
  L 42.92 113.23
  Q 43.50 113.22 43.50 112.64
  L 43.50 91.22
  Q 43.50 90.44 44.21 90.14
  L 65.95 80.85
  A 0.22 0.21 78.4 0 1 66.25 81.05
  L 66.25 113.00
  A 0.50 0.50 0.0 0 0 66.75 113.50
  L 147.75 113.50
  Q 148.25 113.50 148.25 113.00
  L 148.25 89.07
  A 1.29 1.28 23.9 0 0 147.91 88.20
  L 129.57 67.77
  A 0.66 0.66 0.0 0 1 129.50 66.98
  C 130.12 65.96 130.80 65.74 131.64 66.67
  Q 141.35 77.45 150.97 88.31
  Q 151.25 88.63 151.25 89.05
  L 151.25 112.53
  Q 151.25 113.09 151.79 113.20
  L 153.27 113.49
  Q 154.00 113.64 154.00 112.89
  Q 154.00 101.35 154.01 89.87
  C 154.01 89.12 154.31 88.76 154.86 88.39
  Q 155.21 88.15 154.90 87.86
  Q 154.02 87.05 154.02 86.44
  Q 153.98 63.34 154.01 40.24
  A 0.44 0.43 -81.6 0 1 154.57 39.82
  L 156.75 40.47
  Q 157.50 40.70 157.50 41.49
  L 157.50 113.04
  Q 157.50 113.59 158.04 113.54
  L 159.93 113.38
  Q 160.50 113.34 160.50 112.76
  L 160.50 42.05
  Q 160.50 41.56 160.97 41.68
  L 163.00 42.20
  Q 163.42 42.30 163.42 42.74
  L 163.73 112.68
  A 0.82 0.82 0.0 0 0 164.24 113.44
  Q 165.06 113.77 165.98 113.21
  Z"
/>
<path fill="#000000" d="
  M 92.93 47.49
  C 81.35 59.31 71.60 68.60 60.95 79.10
  Q 58.87 81.15 56.21 82.37
  Q 37.68 90.86 19.04 99.07
  Q 18.28 99.41 18.87 98.81
  C 25.36 92.25 31.67 85.46 39.59 80.48
  Q 66.12 63.79 92.74 47.25
  Q 93.83 46.58 92.93 47.49
  Z"
/>
<path fill="#000000" d="
  M 117.49 81.60
  L 92.52 53.76
  A 0.49 0.49 0.0 0 1 92.57 53.06
  L 94.34 51.59
  A 0.49 0.49 0.0 0 1 95.02 51.65
  L 120.31 80.36
  A 0.49 0.49 0.0 0 1 120.08 81.16
  L 117.98 81.75
  A 0.49 0.49 0.0 0 1 117.49 81.60
  Z"
/>
<path fill="#551428" d="
  M 419.11 87.20
  C 414.78 96.64 408.51 110.39 399.02 114.46
  C 395.08 116.15 387.20 116.70 384.21 112.56
  C 381.57 108.92 382.80 102.59 384.17 98.43
  Q 390.39 79.48 396.55 60.52
  Q 397.08 58.87 395.83 56.72
  A 0.97 0.96 -13.3 0 0 395.05 56.24
  C 385.58 55.63 385.34 73.06 381.70 72.46
  Q 381.27 72.39 381.36 71.96
  C 382.66 65.65 386.11 55.91 392.48 53.11
  C 395.74 51.68 402.37 51.02 404.98 54.39
  C 407.35 57.46 406.03 63.65 404.70 67.69
  Q 398.81 85.65 392.88 103.59
  C 391.60 107.46 392.03 114.36 398.35 111.57
  C 413.45 104.91 424.54 68.58 427.84 53.74
  A 0.69 0.68 6.7 0 1 428.52 53.21
  Q 433.44 53.35 438.11 51.95
  Q 438.82 51.74 438.62 52.45
  Q 431.12 79.12 423.66 105.72
  Q 423.03 107.99 423.57 110.18
  A 1.14 1.13 -82.7 0 0 424.13 110.91
  C 430.58 114.25 435.16 99.45 436.36 95.48
  A 0.66 0.65 8.3 0 1 436.99 95.02
  L 438.07 95.02
  Q 438.59 95.02 438.46 95.53
  C 436.01 104.96 432.42 115.32 421.75 115.72
  C 413.33 116.02 414.44 107.93 415.86 102.28
  Q 417.73 94.82 419.42 87.31
  Q 419.76 85.78 419.11 87.20
  Z"
/>
<path fill="#d90e32" d="
  M 576.59 103.18
  C 572.96 85.87 585.17 57.75 603.72 52.75
  C 615.41 49.59 625.48 54.84 626.19 67.77
  C 627.23 86.40 614.87 115.12 592.94 115.67
  Q 579.28 116.01 576.59 103.18
  Z
  M 608.27 54.36
  C 592.08 57.65 586.51 90.74 586.33 104.00
  C 586.28 107.85 587.30 112.40 591.70 113.21
  C 602.62 115.23 610.79 94.86 612.88 87.03
  C 614.39 81.39 621.54 51.66 608.27 54.36
  Z"
/>
<path fill="#341626" d="
  M 322.28 94.77
  C 323.49 77.10 334.44 53.15 354.94 52.02
  C 369.69 51.20 373.68 63.18 372.11 75.51
  Q 369.62 95.22 356.77 108.00
  C 343.09 121.60 320.66 118.50 322.28 94.77
  Z
  M 357.24 54.24
  C 339.51 52.52 332.67 90.49 332.35 102.43
  C 332.12 110.94 336.60 117.03 345.00 111.19
  C 357.24 102.65 362.21 77.74 362.30 63.73
  C 362.31 60.80 361.06 54.61 357.24 54.24
  Z"
/>
<path fill="#76132b" d="
  M 480.50 56.39
  A 1.26 1.26 0.0 0 0 479.79 54.38
  C 466.85 51.40 461.02 63.01 467.46 73.03
  Q 471.38 79.13 475.19 85.31
  C 482.66 97.43 478.23 111.24 464.21 115.03
  C 456.30 117.16 443.50 115.30 442.76 104.88
  C 442.56 102.13 443.65 99.59 446.48 99.00
  C 453.65 97.52 452.02 108.51 451.73 112.03
  Q 451.69 112.53 452.18 112.66
  C 461.99 115.27 469.73 111.11 468.74 99.99
  C 468.00 91.75 462.97 86.02 458.60 79.42
  C 451.80 69.13 455.69 55.48 468.24 52.48
  C 475.55 50.73 490.25 52.38 487.67 63.66
  C 485.57 72.81 472.55 66.61 480.50 56.39
  Z"
/>
<path fill="#97112d" d="
  M 503.68 88.27
  C 500.86 99.88 501.30 117.90 519.45 108.19
  Q 523.76 105.89 528.14 99.45
  Q 528.44 99.01 528.92 99.24
  L 529.86 99.70
  Q 530.36 99.95 530.07 100.43
  C 524.84 109.11 514.93 116.91 504.76 115.81
  C 492.56 114.49 489.68 103.38 491.81 93.06
  C 495.50 75.19 510.81 50.26 532.23 51.96
  C 536.96 52.33 539.20 56.82 538.63 61.31
  C 536.91 75.06 516.57 83.77 504.25 87.67
  Q 503.80 87.81 503.68 88.27
  Z
  M 516.44 61.69
  Q 507.63 72.85 504.52 84.85
  Q 504.40 85.35 504.89 85.21
  C 518.01 81.59 528.99 74.23 529.42 59.45
  C 529.50 56.94 529.66 55.17 527.72 53.97
  Q 527.20 53.64 526.61 53.85
  Q 520.97 55.94 516.44 61.69
  Z"
/>
<path fill="#fcfcfc" d="
  M 516.44 61.69
  Q 520.97 55.94 526.61 53.85
  Q 527.20 53.64 527.72 53.97
  C 529.66 55.17 529.50 56.94 529.42 59.45
  C 528.99 74.23 518.01 81.59 504.89 85.21
  Q 504.40 85.35 504.52 84.85
  Q 507.63 72.85 516.44 61.69
  Z"
/>
<path fill="#fcfcfc" d="
  M 332.35 102.43
  C 332.67 90.49 339.51 52.52 357.24 54.24
  C 361.06 54.61 362.31 60.80 362.30 63.73
  C 362.21 77.74 357.24 102.65 345.00 111.19
  C 336.60 117.03 332.12 110.94 332.35 102.43
  Z"
/>
<path fill="#fcfcfc" d="
  M 586.33 104.00
  C 586.51 90.74 592.08 57.65 608.27 54.36
  C 621.54 51.66 614.39 81.39 612.88 87.03
  C 610.79 94.86 602.62 115.23 591.70 113.21
  C 587.30 112.40 586.28 107.85 586.33 104.00
  Z"
/>
<path fill="#000000" d="
  M 101.82 84.24
  L 100.05 84.24
  L 100.42 78.41
  Q 100.46 77.75 99.80 77.75
  L 84.75 77.75
  Q 84.66 77.75 83.93 77.32
  Q 83.49 77.05 84.51 76.65
  A 1.89 1.69 31.0 0 1 85.19 76.52
  Q 93.14 76.47 101.10 76.51
  Q 101.68 76.52 101.69 77.09
  L 101.82 84.24
  Z"
/>
<rect fill="#000000" x="-3.12" y="-4.02" transform="translate(87.12,84.26) rotate(0.3)" width="6.24" height="8.04" rx="0.26"/>
<rect fill="#000000" x="-3.12" y="-4.01" transform="translate(95.85,84.27) rotate(-0.1)" width="6.24" height="8.02" rx="0.41"/>
<path fill="#131723" d="
  M 100.05 84.24
  L 101.82 84.24
  L 101.92 98.59
  A 0.48 0.48 0.0 0 1 101.30 99.05
  L 100.43 98.78
  Q 99.82 98.59 99.83 97.95
  L 100.05 84.24
  Z"
/>
<path fill="#000000" d="
  M 135.41 86.02
  Q 129.76 85.96 124.12 85.99
  C 123.62 85.99 122.39 85.33 123.44 84.81
  A 0.44 0.34 25.5 0 1 123.62 84.77
  Q 130.18 84.73 136.75 84.76
  A 0.50 0.49 0.0 0 1 137.25 85.25
  L 137.25 101.81
  A 0.46 0.46 0.0 0 1 136.49 102.15
  C 135.67 101.44 136.07 91.29 135.93 86.53
  Q 135.91 86.02 135.41 86.02
  Z"
/>
<rect fill="#000000" x="-2.41" y="-3.17" transform="translate(125.58,90.67) rotate(-0.4)" width="4.82" height="6.34" rx="0.51"/>
<rect fill="#000000" x="-2.48" y="-3.15" transform="translate(132.24,90.76) rotate(0.4)" width="4.96" height="6.30" rx="0.44"/>
<rect fill="#000000" x="-3.14" y="-4.11" transform="translate(87.11,94.64) rotate(0.4)" width="6.28" height="8.22" rx="0.46"/>
<rect fill="#000000" x="-3.12" y="-4.12" transform="translate(95.74,94.63) rotate(-0.7)" width="6.24" height="8.24" rx="0.53"/>
<rect fill="#000000" x="-2.49" y="-3.28" transform="translate(125.51,98.98) rotate(0.7)" width="4.98" height="6.56" rx="0.69"/>
<rect fill="#000000" x="-2.50" y="-3.22" transform="translate(132.26,98.97) rotate(0.3)" width="5.00" height="6.44" rx="0.64"/>
</svg>
